# xmcd
#
# Track frame offsets:
#	150
#	26475
#	55652
#	75605
#	98195
#	132892
#	165887
#
# Disc length: 2624 seconds
#
# Revision: 0
# Processed by: cddbd v1.4PL0 Copyright (c) Steve Scherf et al.
# Submitted via: EasyCDDAExtractor 4.6.0.1
#
DISCID=460a3e07
DTITLE=D¿em - Lunatycy
DYEAR=1999
DGENRE=blues
TTITLE0=Wokó³ sami lunatycy
TTITLE1=Z³oty Paw
TTITLE2=Kim jestem - jestem sobie
TTITLE3=Dzieñ, w którym pêk³o niebo
TTITLE4=Jesiony
TTITLE5=Skazany na bluesa
TTITLE6=Nieudany skok
EXTD=
EXTT0=
EXTT1=
EXTT2=
EXTT3=
EXTT4=
EXTT5=
EXTT6=
PLAYORDER=
